#!OML:ASF X:\für Bonn\!DataBase\2005_08_12_Daniel\c3d\Daniel.ASF
:FULLY-SPECIFIED
:DEGREES
141
root 11.5397 6.99912 -2.45608 -1623.1 217.705 146.179
lowerback 83.5716 0.577564 2.94255
upperback 12.5467 -1.888 -7.62863
thorax -6.12263 -1.12361 -9.38051
lowerneck 6.14387 9.38197 4.33525
upperneck 8.09065 12.666 -7.52109
head 2.40775 6.16932 -3.11195
rclavicle -1.59028e-014 -9.54166e-015
rhumerus -370.055 32.2408 309.232
rradius 58.6335
rwrist 4.23311
rhand -14.5024 740.892
rfingers 7.12502
rthumb 11.6446 711.236
lclavicle -1.59028e-014 -9.54166e-015
lhumerus -530.534 143.406 -487.134
lradius 22.8691
lwrist -44.4713
lhand -65.378 -755.151
lfingers 7.12502
lthumb -37.2551 -9.15288
rfemur -633.605 -144.931 600.516
rtibia 126.012
rfoot -6.58094 26.5434
rtoes 20.7296
lfemur 35.9002 32.7703 130.564
ltibia 158.611
lfoot -76.4998 -48.9078
ltoes 21.9731
142
root 11.6102 6.7381 -2.3553 -1622.76 218.625 145.463
lowerback 83.1926 0.569867 3.1617
upperback 12.6331 -1.77754 -7.66784
thorax -6.0667 -1.09044 -9.54648
lowerneck 6.52893 9.26312 4.01661
upperneck 8.1609 12.4933 -7.59692
head 2.33426 6.07574 -3.10544
rclavicle -4.77083e-014 4.77083e-015
rhumerus -370.936 32.5184 309.311
rradius 59.1284
rwrist 4.51097
rhand -14.8466 740.841
rfingers 7.12502
rthumb 11.3127 711.167
lclavicle -4.77083e-014 4.77083e-015
lhumerus -532.229 144.969 -487.296
lradius 24.4786
lwrist -41.9429
lhand -65.6285 -756.885
lfingers 7.12502
lthumb -37.4919 -10.9489
rfemur -635.469 -145.422 600.716
rtibia 127.798
rfoot -6.49384 26.0437
rtoes 20.7383
lfemur 36.7149 21.9721 135.523
ltibia 160.016
lfoot -82.1783 -41.8028
ltoes 22.44
143
root 11.6548 6.44167 -2.24256 -1622.43 219.563 144.779
lowerback 82.7117 0.547682 3.39454
upperback 12.7599 -1.66644 -7.70437
thorax -5.97625 -1.05494 -9.71291
lowerneck 6.9994 9.16027 3.52421
upperneck 8.19623 12.3215 -7.58974
head 2.21581 5.98023 -3.0451
rclavicle -1.90833e-014 -1.74931e-014
rhumerus -371.738 32.8002 309.313
rradius 59.4333
rwrist 4.84151
rhand -15.2925 740.803
rfingers 7.12502
rthumb 10.8827 711.105
lclavicle -1.90833e-014 -1.74931e-014
lhumerus -533.875 146.456 -487.275
lradius 26.0959
lwrist -39.6114
lhand -65.6566 -758.514
lfingers 7.12502
lthumb -37.5186 -12.5857
rfemur -637.626 -146.509 600.811
rtibia 129.939
rfoot -6.70974 25.0147
rtoes 20.7001
lfemur 34.9313 9.31392 139.792
ltibia 161.541
lfoot -87.3626 -32.9015
ltoes 23.0418
144
root 11.6819 6.13725 -2.12614 -1622.14 220.5 144.136
lowerback 82.2282 0.505629 3.64059
upperback 12.8847 -1.56466 -7.7497
thorax -5.88879 -1.01969 -9.89234
lowerneck 7.54627 9.05206 2.99107
upperneck 8.14458 12.1307 -7.58222
head 2.05304 5.87808 -2.98269
rclavicle -6.36111e-014 -2.8625e-014
rhumerus -372.597 33.0506 309.215
rradius 59.6866
rwrist 5.06222
rhand -15.7489 740.752
rfingers 7.12502
rthumb 10.4424 711.031
lclavicle -6.36111e-014 -2.8625e-014
lhumerus -535.473 147.954 -487.134
lradius 27.7208
lwrist -37.5304
lhand -65.5818 -759.972
lfingers 7.12502
lthumb -37.4478 -14.0247
rfemur -639.718 -148.351 600.595
rtibia 132.185
rfoot -7.26513 23.4374
rtoes 20.7022
lfemur 30.7755 -2.48611 142.763
ltibia 162.958
lfoot -91.6792 -23.9131
ltoes 23.5988
145
root 11.6971 5.83901 -2.01194 -1621.84 221.478 143.499
lowerback 81.6947 0.513919 3.85407
upperback 13.0318 -1.43738 -7.77267
thorax -5.77436 -0.976934 -10.0423
lowerneck 8.05103 8.96525 2.39544
upperneck 8.09978 11.9568 -7.55128
head 1.89747 5.78193 -2.89851
rclavicle 9.85972e-014 -6.20208e-014
rhumerus -373.431 33.2337 309.067
rradius 59.8074
rwrist 5.31717
rhand -16.2596 740.819
rfingers 7.12502
rthumb 9.94967 711.074
lclavicle 9.85972e-014 -6.20208e-014
lhumerus -536.948 149.395 -486.885
lradius 29.1874
lwrist -35.5899
lhand -65.4226 -761.18
lfingers 7.12502
lthumb -37.2973 -15.1933
rfemur -642.45 -147.884 601.628
rtibia 134.391
rfoot -7.24624 22.9785
rtoes 20.6918
lfemur 25.1651 -12.1878 144.552
ltibia 164.168
lfoot -95.6867 -16.049
ltoes 24.1284
146
root 11.7115 5.5631 -1.90458 -1621.62 222.483 142.855
lowerback 81.218 0.475912 4.1394
upperback 13.1892 -1.31102 -7.82686
thorax -5.6395 -0.926067 -10.2607
lowerneck 8.53186 8.86934 1.77539
upperneck 8.01635 11.7614 -7.48929
head 1.73081 5.67643 -2.79899
rclavicle -6.36111e-014 8.90555e-014
rhumerus -374.353 33.3083 308.793
rradius 59.8119
rwrist 5.44518
rhand -16.7839 741.084
rfingers 7.12502
rthumb 9.44382 711.316
lclavicle -6.36111e-014 8.90555e-014
lhumerus -538.176 150.746 -486.483
lradius 30.4638
lwrist -33.9824
lhand -65.2742 -761.826
lfingers 7.12502
lthumb -37.157 -15.8021
rfemur -644.929 -147.408 602.661
rtibia 136.369
rfoot -7.3227 22.3472
rtoes 20.5543
lfemur 19.2994 -19.5626 145.299
ltibia 165.061
lfoot -99.4814 -9.80054
ltoes 24.5849
147
root 11.7295 5.31316 -1.80423 -1621.48 223.557 142.255
lowerback 80.7724 0.453921 4.4476
upperback 13.3586 -1.15793 -7.88733
thorax -5.47957 -0.859839 -10.5091
lowerneck 8.97454 8.75937 1.1607
upperneck 7.94437 11.5435 -7.40309
head 1.57494 5.55989 -2.68984
rclavicle -1.27222e-014 1.06549e-013
rhumerus -375.331 33.3251 308.468
rradius 59.6801
rwrist 5.39341
rhand -17.2406 741.605
rfingers 7.12502
rthumb 9.00315 711.817
lclavicle -1.27222e-014 1.06549e-013
lhumerus -539.126 151.81 -485.849
lradius 31.5585
lwrist -32.8656
lhand -65.1219 -762.182
lfingers 7.12502
lthumb -37.0129 -16.1213
rfemur -647.15 -146.937 603.603
rtibia 138.116
rfoot -7.45362 21.5947
rtoes 20.4857
lfemur 14.0794 -25.1261 145.241
ltibia 165.634
lfoot -102.931 -5.31277
ltoes 25.1472
148
root 11.7598 5.10125 -1.71393 -1621.41 224.645 141.665
lowerback 80.3802 0.389996 4.81178
upperback 13.5184 -1.01173 -7.97894
thorax -5.3239 -0.788124 -10.8172
lowerneck 9.43707 8.6282 0.655329
upperneck 7.84164 11.3019 -7.34676
head 1.41649 5.43663 -2.6101
rclavicle 2.54444e-014 3.65764e-014
rhumerus -376.444 33.3418 308.065
rradius 59.5394
rwrist 5.19249
rhand -17.6803 742.326
rfingers 7.12502
rthumb 8.57888 712.521
lclavicle 2.54444e-014 3.65764e-014
lhumerus -539.871 152.858 -485.184
lradius 32.4543
lwrist -31.9144
lhand -64.9934 -762.159
lfingers 7.12502
lthumb -36.8914 -16.0667
rfemur -648.982 -146.4 604.405
rtibia 139.499
rfoot -7.53312 20.7864
rtoes 20.571
lfemur 10.2804 -29.1659 144.556
ltibia 165.907
lfoot -105.564 -2.39666
ltoes 25.6472
149
root 11.8005 4.92372 -1.63067 -1621.26 225.711 141.073
lowerback 79.8932 0.310935 5.21147
upperback 13.7086 -0.849606 -8.05812
thorax -5.13766 -0.70539 -11.1305
lowerneck 9.8042 8.47016 0.234324
upperneck 7.75506 11.036 -7.32001
head 1.28752 5.30272 -2.54831
rclavicle -8.26944e-014 -1.00187e-013
rhumerus -377.601 33.3819 307.647
rradius 59.3376
rwrist 4.83813
rhand -18.0749 743.202
rfingers 7.12502
rthumb 8.19808 713.381
lclavicle -8.26944e-014 -1.00187e-013
lhumerus -540.347 153.676 -484.359
lradius 33.1345
lwrist -31.3346
lhand -64.9228 -762.274
lfingers 7.12502
lthumb -36.8246 -16.1649
rfemur -650.575 -145.849 605.125
rtibia 140.584
rfoot -7.69526 19.9343
rtoes 20.3401
lfemur 7.99012 -32.2337 143.534
ltibia 165.996
lfoot -107.227 -0.625735
ltoes 26.0436
150
root 11.8492 4.77217 -1.55229 -1621.07 226.744 140.476
lowerback 79.371 0.228439 5.60015
upperback 13.9004 -0.694886 -8.11132
thorax -4.94995 -0.627257 -11.4052
lowerneck 10.0911 8.32422 -0.10855
upperneck 7.70649 10.7975 -7.34183
head 1.19495 5.18205 -2.51036
rclavicle 3.18055e-014 4.77083e-014
rhumerus -378.69 33.4893 307.251
rradius 59.0206
rwrist 4.38678
rhand -18.3484 744.207
rfingers 7.12502
rthumb 7.93406 714.376
lclavicle 3.18055e-014 4.77083e-014
lhumerus -540.759 154.43 -483.509
lradius 33.7256
lwrist -30.8339
lhand -64.9153 -762.067
lfingers 7.12502
lthumb -36.8175 -15.9552
rfemur -652.011 -145.264 605.792
rtibia 141.444
rfoot -7.86922 18.9882
rtoes 19.8221
lfemur 6.80938 -34.5412 142.358
ltibia 165.967
lfoot -108.076 0.202244
ltoes 26.4602
